<svg version="1.1" id="Layer_1" xmlns="http://www.w3.org/2000/svg" xmlns:xlink="http://www.w3.org/1999/xlink" x="0px" y="0px"
	 width="100%" viewBox="0 0 1024 544" enable-background="new 0 0 1024 544" xml:space="preserve">
<path fill="#000000" opacity="1.000000" stroke="none" 
	d="
M480.438110,70.591278 
	C498.502106,93.886742 509.295959,119.860870 512.945068,148.733170 
	C514.467407,160.777878 510.308594,167.165985 499.253876,172.222839 
	C471.250702,185.032593 443.336578,198.036972 415.381592,210.952194 
	C412.208984,212.417938 409.012665,213.833557 405.811188,215.235443 
	C398.107300,218.608887 397.867950,218.798080 392.389313,212.283401 
	C381.170135,198.942505 372.587128,183.935135 365.389038,168.101059 
	C357.776337,151.354874 352.122955,134.018707 349.280548,115.802002 
	C348.019623,107.720802 348.756714,106.306297 355.927490,103.033737 
	C385.911591,89.349762 415.862701,75.593384 445.853790,61.924805 
	C462.213745,54.468681 468.558929,56.069855 480.438110,70.591278 
M484.743805,149.743317 
	C487.495697,153.131058 490.664459,156.096680 494.368439,158.379333 
	C498.312286,160.809769 501.271790,159.359283 501.715942,154.772522 
	C502.084778,150.963150 501.927338,147.122589 501.204529,143.335770 
	C497.321503,122.992378 489.696106,104.103981 478.864655,86.507156 
	C475.191223,80.539291 470.949432,74.948456 465.414490,70.524864 
	C460.420776,66.533875 457.029846,67.857521 456.342926,74.258965 
	C455.973480,77.701958 455.940247,81.308266 456.529907,84.706474 
	C460.640137,108.393829 470.025543,129.854507 484.743805,149.743317 
M366.272858,115.508713 
	C362.956665,119.407082 365.659729,123.360512 367.182556,126.455208 
	C368.729462,129.598785 371.905792,126.732407 374.133667,125.721451 
	C394.876160,116.308998 415.508484,106.649826 436.339966,97.440392 
	C441.151428,95.313286 442.712769,92.563164 441.180267,87.832733 
	C440.680206,86.289177 441.072479,84.467079 439.016052,82.388504 
	C415.201294,93.243797 391.068573,104.244026 366.272858,115.508713 
z"/>
<path fill="#000000" opacity="1.000000" stroke="none" 
	d="
M295.429565,146.354172 
	C311.481781,139.057007 327.192322,131.922134 342.621368,124.915085 
	C344.610535,126.570488 344.885498,128.238693 345.282684,129.826797 
	C352.170502,157.368851 363.015747,183.157181 379.531982,206.369156 
	C381.896912,209.692780 381.196838,210.988251 377.748688,212.556152 
	C339.883850,229.773605 302.026245,247.009186 264.306274,264.540253 
	C259.299957,266.867065 256.490723,265.172943 253.686676,261.681641 
	C244.758118,250.564804 238.135712,238.103424 232.445755,225.097595 
	C227.287781,213.307755 223.590317,201.088120 221.414536,188.404083 
	C220.206589,181.362183 220.681900,180.348160 227.370544,177.299973 
	C249.933304,167.017593 272.514008,156.774551 295.429565,146.354172 
M295.870575,175.325974 
	C307.982727,169.794739 320.098907,164.272339 332.202179,158.721848 
	C333.832428,157.974213 336.144897,157.436279 336.032013,155.285309 
	C335.860199,152.011276 335.828827,148.213898 333.235260,145.988983 
	C331.071960,144.133148 328.529999,146.500015 326.368439,147.483246 
	C297.586456,160.575195 268.839081,173.743332 240.087067,186.901093 
	C236.003922,188.769653 235.646439,191.540283 238.207733,197.768600 
	C240.024338,202.185974 242.673187,199.396576 244.691147,198.497009 
	C261.565002,190.974915 278.361847,183.280060 295.870575,175.325974 
z"/>
<path fill="#000000" opacity="1.000000" stroke="none" 
	d="
M292.023621,395.999573 
	C292.023651,376.184448 292.023651,356.869141 292.023651,336.249359 
	C289.305573,343.560272 286.968079,349.761902 284.691864,355.985992 
	C277.944427,374.436279 271.133698,392.864410 264.564941,411.378296 
	C263.308228,414.920380 261.574402,416.440277 257.745544,416.300110 
	C250.822372,416.046692 243.883286,416.228394 235.840210,416.228394 
	C247.638138,384.109589 259.022766,353.115967 270.579895,321.652802 
	C265.798279,321.217651 265.136078,318.722290 265.449829,315.013123 
	C265.855713,310.214447 265.695404,305.353088 265.537659,300.526642 
	C265.430908,297.261810 266.887573,296.026550 269.972260,296.027954 
	C293.633179,296.038818 317.294159,296.029602 340.955017,295.989380 
	C344.051117,295.984131 345.496643,297.191132 345.384888,300.468292 
	C345.214661,305.461212 345.206055,310.469727 345.395630,315.461487 
	C345.527496,318.933533 344.945282,321.493561 339.647095,320.990021 
	C351.291931,352.824280 362.668732,383.925751 374.421356,416.054657 
	C365.403290,416.054657 357.482147,416.198242 349.571411,415.974243 
	C346.921326,415.899170 346.641754,413.107208 345.911621,411.134735 
	C336.970428,386.979980 328.053986,362.816040 319.033569,338.390259 
	C317.820740,340.141083 318.381439,341.823181 318.376160,343.370544 
	C318.301025,365.365326 318.292297,387.360321 318.254913,409.355286 
	C318.243347,416.168518 318.226105,416.186798 311.229034,416.211731 
	C306.230377,416.229523 301.229980,416.109924 296.233307,416.205933 
	C293.221924,416.263763 292.022278,414.873901 292.042542,411.994720 
	C292.078857,406.829926 292.034302,401.664520 292.023621,395.999573 
z"/>
<path fill="#000000" opacity="1.000000" stroke="none" 
	d="
M371.796204,302.940979 
	C371.805786,297.615723 371.906921,292.780457 371.793182,287.950287 
	C371.717041,284.716461 373.115234,283.444427 376.291931,283.575928 
	C379.619019,283.713684 382.959839,283.498718 386.289154,283.606934 
	C390.246490,283.735565 392.059265,282.154602 391.925415,277.996399 
	C391.694427,270.819611 392.374603,263.665710 394.150208,256.706512 
	C398.435120,239.912811 410.253479,231.538071 426.597870,229.105652 
	C437.015991,227.555191 447.511688,228.074875 457.850311,230.628693 
	C461.243408,231.466827 462.445740,232.960724 461.945892,236.591614 
	C461.084747,242.846390 460.656097,249.172318 460.318695,255.482971 
	C460.133789,258.941895 459.548828,260.686371 455.309296,259.769470 
	C451.465363,258.938110 447.351166,259.065643 443.372406,259.212494 
	C436.347870,259.471710 432.380493,263.291840 431.397339,270.247040 
	C429.628296,282.761871 429.942108,283.120209 442.399506,283.105133 
	C446.065643,283.100708 449.731812,283.172668 453.398010,283.181732 
	C456.590057,283.189606 458.305084,284.417236 458.214752,287.954529 
	C458.048859,294.450043 458.075684,300.954254 458.193848,307.451721 
	C458.255219,310.824188 456.962250,312.308868 453.493195,312.220886 
	C447.997406,312.081421 442.478149,312.478363 437.000275,312.139648 
	C432.325439,311.850586 430.967346,313.662598 430.989410,318.163910 
	C431.137329,348.328430 431.078461,378.493958 431.086945,408.659180 
	C431.087219,409.659119 431.043335,410.661804 431.101196,411.658478 
	C431.282410,414.779968 429.940826,416.239288 426.711975,416.216736 
	C416.712982,416.146942 406.711945,416.112793 396.714294,416.251892 
	C392.905365,416.304871 391.854675,414.505646 391.875885,411.044098 
	C391.959656,397.378540 391.894165,383.712128 391.892944,370.046021 
	C391.891418,352.880096 391.714661,335.710968 392.013824,318.550201 
	C392.103943,313.380524 390.377228,311.535492 385.414551,312.194702 
	C383.777222,312.412201 382.085968,312.223846 380.419373,312.221069 
	C371.770935,312.206726 371.770935,312.206726 371.796204,302.940979 
z"/>
<path fill="#000000" opacity="1.000000" stroke="none" 
	d="
M676.877930,348.987183 
	C676.912048,334.202148 678.951477,320.403015 685.447937,307.367035 
	C698.701904,280.771210 728.082947,275.787140 748.919617,284.371155 
	C758.730713,288.413025 760.125244,290.583252 759.977356,301.247375 
	C759.902344,306.660156 760.402649,312.127106 759.336121,318.309296 
	C753.962891,315.713135 749.674805,312.482483 744.244507,311.862915 
	C730.917297,310.342468 724.287903,314.430420 720.552612,324.394135 
	C714.375671,340.870575 714.209717,357.738556 720.276855,374.225372 
	C725.281860,387.825836 741.085022,392.366150 753.545349,384.540619 
	C755.188904,383.508423 756.526428,381.822845 759.301880,381.933014 
	C760.852722,389.289124 761.521057,396.842743 761.610962,404.392883 
	C761.643005,407.084717 758.870300,408.807617 756.733459,410.428558 
	C737.003723,425.394928 705.000732,419.833374 690.063171,398.834717 
	C679.528381,384.025299 677.272278,366.996674 676.877930,348.987183 
z"/>
<path fill="#000000" opacity="1.000000" stroke="none" 
	d="
M802.374146,375.000183 
	C802.632812,387.304993 801.615662,399.145020 803.292664,410.909515 
	C803.852600,414.837891 802.198486,416.306366 798.312195,416.240173 
	C789.822205,416.095581 781.326111,416.096741 772.836304,416.248260 
	C769.397400,416.309662 768.328552,414.621674 767.691711,411.572174 
	C764.478577,396.186035 763.423035,380.676453 763.525269,364.956848 
	C763.798096,322.995392 763.618347,281.031036 763.625305,239.067825 
	C763.626526,231.816345 763.641846,231.818588 770.652771,231.810135 
	C779.644836,231.799286 788.639160,231.894470 797.627991,231.717422 
	C801.266479,231.645767 802.548279,232.863770 802.537109,236.621918 
	C802.400208,282.581085 802.405884,328.540710 802.374146,375.000183 
z"/>
<path fill="#000000" opacity="1.000000" stroke="none" 
	d="
M620.882690,390.000000 
	C620.878662,371.851959 620.840820,354.203796 620.896545,336.555969 
	C620.909851,332.358276 620.462891,328.238770 619.416077,324.199860 
	C616.995483,314.860260 610.373108,310.541870 600.757690,311.665680 
	C594.560120,312.389984 588.739807,314.023529 583.165283,318.742889 
	C581.702026,310.710236 580.908264,303.687622 580.621887,296.605225 
	C580.540710,294.598633 581.978210,293.252228 583.345093,292.028656 
	C597.608459,279.261200 614.272034,278.086090 631.565247,283.200928 
	C647.364258,287.873871 655.455994,299.893219 658.478027,315.567627 
	C659.768433,322.260712 660.289856,329.049500 660.262756,335.904724 
	C660.165527,360.544952 660.140930,385.186584 660.332764,409.825775 
	C660.369507,414.537384 658.943542,416.375122 654.107544,416.237701 
	C644.791687,415.972961 635.460815,416.053528 626.140381,416.222107 
	C622.285034,416.291840 620.728882,414.884369 620.834961,410.977081 
	C621.020203,404.155975 620.884521,397.326172 620.882690,390.000000 
z"/>
<path fill="#000000" opacity="1.000000" stroke="none" 
	d="
M549.049805,416.194489 
	C538.356201,416.074097 539.006714,417.049622 538.989990,406.797638 
	C538.925964,367.644928 538.925598,328.491852 538.711548,289.339966 
	C538.688110,285.055939 539.720093,283.390198 544.244507,283.538605 
	C552.897583,283.822449 561.569214,283.638641 570.230896,283.502411 
	C572.865417,283.460968 574.059998,284.278595 574.507629,287.042175 
	C576.262878,297.877502 578.371155,308.661438 578.376831,319.699341 
	C578.392212,349.855377 578.318298,380.011841 578.486938,410.166992 
	C578.512268,414.693115 577.158997,416.436737 572.529663,416.268341 
	C564.875793,415.989960 557.204346,416.194946 549.049805,416.194489 
z"/>
<path fill="#000000" opacity="1.000000" stroke="none" 
	d="
M825.873779,403.978088 
	C825.871704,366.020996 825.863220,328.559265 825.874268,291.097565 
	C825.876465,283.657043 825.911133,283.639191 833.291382,283.621643 
	C840.950134,283.603394 848.610718,283.720184 856.266968,283.582245 
	C859.414856,283.525574 860.590332,284.906281 861.167664,287.853790 
	C864.055115,302.595276 865.366272,317.428711 865.219421,332.471375 
	C864.967407,358.275818 865.069885,384.085114 865.239258,409.890961 
	C865.269836,414.555634 863.942505,416.459717 859.024963,416.283569 
	C850.212158,415.967926 841.379517,416.221100 832.555298,416.199554 
	C825.974976,416.183502 825.909058,416.092560 825.877747,409.468597 
	C825.869873,407.803589 825.874939,406.138550 825.873779,403.978088 
z"/>
<path fill="#000000" opacity="1.000000" stroke="none" 
	d="
M516.192383,347.000000 
	C516.189697,368.319092 516.061096,389.139465 516.278381,409.956268 
	C516.328857,414.798462 514.695251,416.386047 509.959869,416.244812 
	C500.974091,415.976776 491.971222,416.027557 482.982208,416.236847 
	C478.824768,416.333679 477.517242,414.745483 477.546661,410.674500 
	C477.692261,390.522644 477.670471,370.368896 477.584167,350.216339 
	C477.498627,330.234924 477.237030,310.254333 477.114105,290.273010 
	C477.073547,283.685944 477.214844,283.617737 483.830353,283.608002 
	C492.824188,283.594818 501.821808,283.759186 510.810242,283.538971 
	C514.943970,283.437683 516.333496,284.954956 516.300049,289.039703 
	C516.143616,308.192139 516.207336,327.346405 516.192383,347.000000 
z"/>
<path fill="#000000" opacity="1.000000" stroke="none" 
	d="
M178.041824,218.972107 
	C191.226929,212.985657 204.070145,207.159500 217.533920,201.051834 
	C222.858414,220.727676 230.932175,238.521469 240.816376,255.148834 
	C240.103622,257.257904 238.520432,257.615387 237.205154,258.219208 
	C223.127441,264.681976 208.973160,270.982117 194.980774,277.623688 
	C191.442139,279.303314 189.290298,278.912170 186.967133,275.821167 
	C176.481094,261.869324 169.835480,246.219849 165.914352,229.314453 
	C165.156082,226.045288 166.148331,223.905762 169.466125,222.732773 
	C172.282928,221.736893 174.960663,220.347610 178.041824,218.972107 
z"/>
<path fill="#000000" opacity="1.000000" stroke="none" 
	d="
M172.261810,264.810913 
	C176.605988,273.240234 176.602905,273.233734 168.288239,277.184723 
	C164.226562,279.114716 160.241257,281.221649 156.103882,282.970551 
	C153.125229,284.229645 152.289429,285.942261 153.968628,288.720245 
	C156.152420,292.333038 154.546432,294.068115 151.075943,295.344513 
	C147.959534,296.490662 144.994400,298.057465 141.989716,299.495453 
	C138.692627,301.073395 136.279770,300.472565 134.688782,296.967743 
	C128.423569,283.166016 122.121574,269.380859 115.775795,255.616013 
	C114.387482,252.604568 114.787712,250.593948 118.189873,249.447372 
	C120.228165,248.760452 122.130135,247.668808 124.092873,246.757965 
	C132.031464,243.073929 132.031403,243.073792 137.323898,249.572983 
	C143.881805,246.676147 150.677551,243.969788 157.181244,240.685165 
	C160.799316,238.857895 162.107819,239.844940 163.279678,243.294357 
	C165.742050,250.542313 168.153503,257.836578 172.261810,264.810913 
z"/>
<path fill="#000000" opacity="1.000000" stroke="none" 
	d="
M309.902588,249.821793 
	C315.382904,247.308075 320.550293,245.013489 325.644958,242.567581 
	C329.039124,240.938095 331.025330,241.265900 331.036255,245.606857 
	C331.054688,252.923386 331.506195,260.252747 331.204681,267.553101 
	C330.658356,280.782196 319.270416,291.064331 305.571472,291.142090 
	C292.144409,291.218292 280.377502,280.771545 279.223663,267.913696 
	C278.953827,264.906799 280.176971,263.365051 282.805969,262.195587 
	C291.763000,258.211273 300.646912,254.062531 309.902588,249.821793 
M303.260712,263.661163 
	C300.121857,265.083557 298.717316,267.487946 299.660065,270.841034 
	C300.384583,273.417877 302.289307,275.174896 304.980591,275.343323 
	C307.607635,275.507843 309.762360,274.264313 310.941589,271.744751 
	C312.943024,267.468658 309.795105,263.728180 303.260712,263.661163 
z"/>
<path fill="#000000" opacity="1.000000" stroke="none" 
	d="
M516.972839,248.999939 
	C516.959045,253.649582 516.954834,257.801605 516.923340,261.953400 
	C516.900574,264.955048 515.611572,266.417755 512.361450,266.378876 
	C501.899109,266.253693 491.433655,266.266510 480.970886,266.371307 
	C477.681885,266.404236 476.628265,264.945770 476.666962,261.850800 
	C476.772919,253.381348 476.797058,244.908585 476.673889,236.439743 
	C476.624176,233.019485 477.976227,231.693619 481.384827,231.728546 
	C491.681427,231.834045 501.980713,231.823669 512.277283,231.710220 
	C515.761536,231.671814 517.041809,233.297821 516.994751,236.543839 
	C516.936951,240.529236 516.974426,244.516022 516.972839,248.999939 
z"/>
<path fill="#000000" opacity="1.000000" stroke="none" 
	d="
M891.129089,314.386536 
	C882.795288,314.576355 875.887939,317.559357 868.947998,322.197144 
	C869.669922,312.999329 864.648315,303.613892 869.159119,295.368500 
	C874.420105,285.751495 884.335815,281.954132 895.070251,280.792236 
	C895.893494,280.703156 896.729614,280.722351 897.559998,280.711273 
	C911.219543,280.529083 912.773621,282.449524 910.740417,295.715515 
	C909.667053,302.719360 909.202026,309.816406 908.380615,317.650665 
	C902.499329,316.142303 897.205750,314.091370 891.129089,314.386536 
z"/>
</svg>